<?xml version="1.0" standalone="no"?>
<!DOCTYPE svg PUBLIC "-//W3C//DTD SVG 20010904//EN"
 "http://www.w3.org/TR/2001/REC-SVG-20010904/DTD/svg10.dtd">
<svg version="1.0" xmlns="http://www.w3.org/2000/svg"
 width="606.000000pt" height="606.000000pt" viewBox="0 0 606.000000 606.000000"
 preserveAspectRatio="xMidYMid meet">
<metadata>
Created by potrace 1.11, written by Peter Selinger 2001-2013
</metadata>
<g transform="translate(0.000000,606.000000) scale(0.100000,-0.100000)"
fill="#000000" stroke="none">
<path d="M3873 4698 l-33 -9 0 -97 c-1 -367 -12 -1088 -25 -1547 -19 -660 -86
-1049 -200 -1155 -53 -49 -188 -20 -255 56 -74 85 -105 202 -115 439 -4 120
-7 175 -20 370 -14 219 -19 414 -30 1095 -10 675 -14 713 -80 756 -24 16 -27
16 -43 1 -18 -19 -20 -107 -8 -392 6 -158 12 -406 21 -950 6 -336 12 -534 20
-660 19 -269 21 -294 45 -460 34 -241 78 -318 219 -388 55 -27 74 -31 145 -31
64 -1 89 4 121 21 61 32 113 91 150 168 33 68 86 252 100 345 4 25 9 53 11 64
4 21 11 90 19 186 8 101 20 438 30 855 3 138 8 293 10 345 13 321 18 406 21
411 3 5 6 350 5 485 -1 90 -29 113 -108 92z"/>
<path d="M835 4676 c-19 -14 -20 -26 -20 -343 -1 -572 -21 -1781 -30 -1853 -3
-19 -8 -183 -11 -365 -7 -377 -9 -365 72 -375 91 -11 227 25 312 83 188 127
289 357 286 652 -1 130 -13 320 -25 395 -22 135 -87 291 -150 358 l-31 33 35
52 c69 104 110 214 122 324 4 32 8 69 11 83 11 66 4 460 -10 531 -16 82 -61
206 -104 284 -24 44 -34 53 -95 78 -142 59 -325 91 -362 63z m260 -172 c19 -9
45 -30 59 -48 26 -34 60 -125 70 -186 3 -19 8 -48 11 -65 11 -67 19 -216 18
-325 -1 -192 -35 -349 -93 -428 -37 -52 -117 -94 -168 -90 l-37 3 -6 60 c-3
33 -5 222 -4 420 4 628 25 719 150 659z m-35 -1354 c90 -46 172 -182 205 -340
23 -110 33 -435 15 -524 -16 -83 -70 -182 -133 -243 -56 -55 -154 -113 -192
-113 -22 0 -24 5 -30 73 -3 39 -4 108 -1 152 7 111 15 369 21 707 3 158 8 294
11 303 8 19 49 13 104 -15z"/>
<path d="M4698 4613 c-31 -10 -50 -23 -54 -37 -4 -11 -9 -284 -11 -606 -1
-322 -5 -895 -8 -1275 -4 -379 -7 -741 -7 -803 -1 -172 4 -175 315 -167 228 5
276 13 305 50 16 20 18 34 13 76 -3 19 -73 29 -219 32 -144 3 -165 6 -190 24
-55 41 -55 42 -59 748 -2 358 -1 659 3 668 8 22 64 16 174 -20 105 -34 150
-19 170 58 14 50 4 84 -28 106 -22 14 -55 19 -167 23 -136 5 -140 6 -153 30
-11 20 -12 102 -7 430 4 223 8 425 9 450 l2 45 49 -3 c26 -2 100 -17 164 -33
64 -16 124 -29 134 -29 29 0 74 37 86 71 21 61 -44 93 -262 129 -62 10 -132
25 -156 34 -51 19 -44 19 -103 -1z"/>
<path d="M2063 4568 c-33 -41 -42 -353 -59 -2155 -6 -632 -5 -652 30 -676 20
-14 584 9 602 24 30 25 13 112 -25 123 -19 6 -115 13 -296 22 -71 3 -138 10
-148 16 -17 9 -18 33 -12 451 10 855 9 2177 -1 2187 -18 18 -79 23 -91 8z"/>
</g>
</svg>
